# xmcd CD database file
#
# Track frame offsets:
#	150
#	15375
#	38152
#	53712
#	66572
#	89005
#	103725
#	119932
#	132135
#	150750
#
# Disc length: 2296 seconds
#
# Revision: 0
# Processed by: cddbd v1.5.1PL2 Copyright (c) Steve Scherf et al.
# Submitted via: CDex 1.51
#
DISCID=8408f60a
DTITLE=Lyle Lovett - The Lights of L.A. County: Live at the Roxy
DYEAR=1988
DGENRE=Country
TTITLE0=If I Had A Boat
TTITLE1=If I Were The Man
TTITLE2=L.A. County
TTITLE3=God Will
TTITLE4=This Old Porch
TTITLE5=Give Back My Heart
TTITLE6=M-O-N-E-Y
TTITLE7=Stand By Your Man
TTITLE8=Cowboy Man
TTITLE9=She's Hot To Go
EXTD=YEAR: 1988
EXTT0=
EXTT1=
EXTT2=
EXTT3=
EXTT4=
EXTT5=
EXTT6=
EXTT7=
EXTT8=
EXTT9=
PLAYORDER=
